<svg width="300" height="75" viewBox="0 0 300 75" fill="none" xmlns="http://www.w3.org/2000/svg">
<rect x="149" width="150" height="75" rx="10" fill="#FFA500"/>
<path d="M178.344 14.1875V31.0312C181.177 27.7188 184.562 26.0625 188.5 26.0625C190.521 26.0625 192.344 26.4375 193.969 27.1875C195.594 27.9375 196.812 28.8958 197.625 30.0625C198.458 31.2292 199.021 32.5208 199.312 33.9375C199.625 35.3542 199.781 37.5521 199.781 40.5312V60H191V42.4688C191 38.9896 190.833 36.7812 190.5 35.8438C190.167 34.9062 189.573 34.1667 188.719 33.625C187.885 33.0625 186.833 32.7812 185.562 32.7812C184.104 32.7812 182.802 33.1354 181.656 33.8438C180.51 34.5521 179.667 35.625 179.125 37.0625C178.604 38.4792 178.344 40.5833 178.344 43.375V60H169.562V14.1875H178.344ZM230.562 60V55.0312C229.354 56.8021 227.76 58.1979 225.781 59.2188C223.823 60.2396 221.75 60.75 219.562 60.75C217.333 60.75 215.333 60.2604 213.562 59.2812C211.792 58.3021 210.51 56.9271 209.719 55.1562C208.927 53.3854 208.531 50.9375 208.531 47.8125V26.8125H217.312V42.0625C217.312 46.7292 217.469 49.5938 217.781 50.6562C218.115 51.6979 218.708 52.5312 219.562 53.1562C220.417 53.7604 221.5 54.0625 222.812 54.0625C224.312 54.0625 225.656 53.6562 226.844 52.8438C228.031 52.0104 228.844 50.9896 229.281 49.7812C229.719 48.5521 229.938 45.5625 229.938 40.8125V26.8125H238.719V60H230.562ZM247.469 60V14.1875H256.25V30.6875C258.958 27.6042 262.167 26.0625 265.875 26.0625C269.917 26.0625 273.26 27.5312 275.906 30.4688C278.552 33.3854 279.875 37.5833 279.875 43.0625C279.875 48.7292 278.521 53.0938 275.812 56.1562C273.125 59.2188 269.854 60.75 266 60.75C264.104 60.75 262.229 60.2812 260.375 59.3438C258.542 58.3854 256.958 56.9792 255.625 55.125V60H247.469ZM256.188 42.6875C256.188 46.125 256.729 48.6667 257.812 50.3125C259.333 52.6458 261.354 53.8125 263.875 53.8125C265.812 53.8125 267.458 52.9896 268.812 51.3438C270.188 49.6771 270.875 47.0625 270.875 43.5C270.875 39.7083 270.188 36.9792 268.812 35.3125C267.438 33.625 265.677 32.7812 263.531 32.7812C261.427 32.7812 259.677 33.6042 258.281 35.25C256.885 36.875 256.188 39.3542 256.188 42.6875Z" fill="black"/>
<path d="M41.5312 54.1875C43.8021 55.8125 46.2708 57.1042 48.9375 58.0625L45.5312 64.5938C44.1354 64.1771 42.7708 63.6042 41.4375 62.875C41.1458 62.7292 39.0938 61.375 35.2812 58.8125C32.2812 60.125 28.9583 60.7812 25.3125 60.7812C18.2708 60.7812 12.75 58.7083 8.75 54.5625C4.77083 50.4167 2.78125 44.5938 2.78125 37.0938C2.78125 29.6146 4.78125 23.8021 8.78125 19.6562C12.7812 15.4896 18.2083 13.4062 25.0625 13.4062C31.8542 13.4062 37.2396 15.4896 41.2188 19.6562C45.1979 23.8021 47.1875 29.6146 47.1875 37.0938C47.1875 41.0521 46.6354 44.5312 45.5312 47.5312C44.6979 49.8229 43.3646 52.0417 41.5312 54.1875ZM34.0938 48.9688C35.2812 47.5729 36.1667 45.8854 36.75 43.9062C37.3542 41.9271 37.6562 39.6562 37.6562 37.0938C37.6562 31.8021 36.4896 27.8542 34.1562 25.25C31.8229 22.625 28.7708 21.3125 25 21.3125C21.2292 21.3125 18.1667 22.625 15.8125 25.25C13.4792 27.875 12.3125 31.8229 12.3125 37.0938C12.3125 42.4479 13.4792 46.4583 15.8125 49.125C18.1667 51.7708 21.1354 53.0938 24.7188 53.0938C26.0521 53.0938 27.3125 52.875 28.5 52.4375C26.625 51.2083 24.7188 50.25 22.7812 49.5625L25.375 44.2812C28.4167 45.3229 31.3229 46.8854 34.0938 48.9688ZM76.25 60V55.0312C75.0417 56.8021 73.4479 58.1979 71.4688 59.2188C69.5104 60.2396 67.4375 60.75 65.25 60.75C63.0208 60.75 61.0208 60.2604 59.25 59.2812C57.4792 58.3021 56.1979 56.9271 55.4062 55.1562C54.6146 53.3854 54.2188 50.9375 54.2188 47.8125V26.8125H63V42.0625C63 46.7292 63.1562 49.5938 63.4688 50.6562C63.8021 51.6979 64.3958 52.5312 65.25 53.1562C66.1042 53.7604 67.1875 54.0625 68.5 54.0625C70 54.0625 71.3438 53.6562 72.5312 52.8438C73.7188 52.0104 74.5312 50.9896 74.9688 49.7812C75.4062 48.5521 75.625 45.5625 75.625 40.8125V26.8125H84.4062V60H76.25ZM93.5312 22.3125V14.1875H102.312V22.3125H93.5312ZM93.5312 60V26.8125H102.312V60H93.5312ZM107.812 60V53.1562L120.25 38.875C122.292 36.5417 123.802 34.8854 124.781 33.9062C123.76 33.9688 122.417 34.0104 120.75 34.0312L109.031 34.0938V26.8125H136.469V33.0312L123.781 47.6562L119.312 52.5C121.75 52.3542 123.26 52.2812 123.844 52.2812H137.438V60H107.812Z" fill="white"/>
</svg>
