<svg width="300" height="75" viewBox="0 0 300 75" fill="none" xmlns="http://www.w3.org/2000/svg">
<rect x="150" width="150" height="75" rx="10" fill="#FFA500"/>
<path d="M179.344 14.1875V31.0312C182.177 27.7188 185.562 26.0625 189.5 26.0625C191.521 26.0625 193.344 26.4375 194.969 27.1875C196.594 27.9375 197.812 28.8958 198.625 30.0625C199.458 31.2292 200.021 32.5208 200.312 33.9375C200.625 35.3542 200.781 37.5521 200.781 40.5312V60H192V42.4688C192 38.9896 191.833 36.7812 191.5 35.8438C191.167 34.9062 190.573 34.1667 189.719 33.625C188.885 33.0625 187.833 32.7812 186.562 32.7812C185.104 32.7812 183.802 33.1354 182.656 33.8438C181.51 34.5521 180.667 35.625 180.125 37.0625C179.604 38.4792 179.344 40.5833 179.344 43.375V60H170.562V14.1875H179.344ZM231.562 60V55.0312C230.354 56.8021 228.76 58.1979 226.781 59.2188C224.823 60.2396 222.75 60.75 220.562 60.75C218.333 60.75 216.333 60.2604 214.562 59.2812C212.792 58.3021 211.51 56.9271 210.719 55.1562C209.927 53.3854 209.531 50.9375 209.531 47.8125V26.8125H218.312V42.0625C218.312 46.7292 218.469 49.5938 218.781 50.6562C219.115 51.6979 219.708 52.5312 220.562 53.1562C221.417 53.7604 222.5 54.0625 223.812 54.0625C225.312 54.0625 226.656 53.6562 227.844 52.8438C229.031 52.0104 229.844 50.9896 230.281 49.7812C230.719 48.5521 230.938 45.5625 230.938 40.8125V26.8125H239.719V60H231.562ZM248.469 60V14.1875H257.25V30.6875C259.958 27.6042 263.167 26.0625 266.875 26.0625C270.917 26.0625 274.26 27.5312 276.906 30.4688C279.552 33.3854 280.875 37.5833 280.875 43.0625C280.875 48.7292 279.521 53.0938 276.812 56.1562C274.125 59.2188 270.854 60.75 267 60.75C265.104 60.75 263.229 60.2812 261.375 59.3438C259.542 58.3854 257.958 56.9792 256.625 55.125V60H248.469ZM257.188 42.6875C257.188 46.125 257.729 48.6667 258.812 50.3125C260.333 52.6458 262.354 53.8125 264.875 53.8125C266.812 53.8125 268.458 52.9896 269.812 51.3438C271.188 49.6771 271.875 47.0625 271.875 43.5C271.875 39.7083 271.188 36.9792 269.812 35.3125C268.438 33.625 266.677 32.7812 264.531 32.7812C262.427 32.7812 260.677 33.6042 259.281 35.25C257.885 36.875 257.188 39.3542 257.188 42.6875Z" fill="black"/>
<path d="M41.5312 54.1875C43.8021 55.8125 46.2708 57.1042 48.9375 58.0625L45.5312 64.5938C44.1354 64.1771 42.7708 63.6042 41.4375 62.875C41.1458 62.7292 39.0937 61.375 35.2812 58.8125C32.2812 60.125 28.9583 60.7812 25.3125 60.7812C18.2708 60.7812 12.75 58.7083 8.75 54.5625C4.77083 50.4167 2.78125 44.5938 2.78125 37.0938C2.78125 29.6146 4.78125 23.8021 8.78125 19.6562C12.7812 15.4896 18.2083 13.4062 25.0625 13.4062C31.8542 13.4062 37.2396 15.4896 41.2187 19.6562C45.1979 23.8021 47.1875 29.6146 47.1875 37.0938C47.1875 41.0521 46.6354 44.5312 45.5312 47.5312C44.6979 49.8229 43.3646 52.0417 41.5312 54.1875ZM34.0937 48.9688C35.2812 47.5729 36.1667 45.8854 36.75 43.9062C37.3542 41.9271 37.6562 39.6562 37.6562 37.0938C37.6562 31.8021 36.4896 27.8542 34.1562 25.25C31.8229 22.625 28.7708 21.3125 25 21.3125C21.2292 21.3125 18.1667 22.625 15.8125 25.25C13.4792 27.875 12.3125 31.8229 12.3125 37.0938C12.3125 42.4479 13.4792 46.4583 15.8125 49.125C18.1667 51.7708 21.1354 53.0938 24.7187 53.0938C26.0521 53.0938 27.3125 52.875 28.5 52.4375C26.625 51.2083 24.7187 50.25 22.7812 49.5625L25.375 44.2812C28.4167 45.3229 31.3229 46.8854 34.0937 48.9688ZM76.25 60V55.0312C75.0417 56.8021 73.4479 58.1979 71.4687 59.2188C69.5104 60.2396 67.4375 60.75 65.25 60.75C63.0208 60.75 61.0208 60.2604 59.25 59.2812C57.4792 58.3021 56.1979 56.9271 55.4062 55.1562C54.6146 53.3854 54.2187 50.9375 54.2187 47.8125V26.8125H63V42.0625C63 46.7292 63.1562 49.5938 63.4687 50.6562C63.8021 51.6979 64.3958 52.5312 65.25 53.1562C66.1042 53.7604 67.1875 54.0625 68.5 54.0625C70 54.0625 71.3437 53.6562 72.5312 52.8438C73.7187 52.0104 74.5312 50.9896 74.9687 49.7812C75.4062 48.5521 75.625 45.5625 75.625 40.8125V26.8125H84.4062V60H76.25ZM93.5312 22.3125V14.1875H102.312V22.3125H93.5312ZM93.5312 60V26.8125H102.312V60H93.5312ZM107.812 60V53.1562L120.25 38.875C122.292 36.5417 123.802 34.8854 124.781 33.9062C123.76 33.9688 122.417 34.0104 120.75 34.0312L109.031 34.0938V26.8125H136.469V33.0312L123.781 47.6562L119.312 52.5C121.75 52.3542 123.26 52.2812 123.844 52.2812H137.438V60H107.812Z" fill="black"/>
</svg>
